<?xml version="1.0" encoding="UTF-8"?>
<svg width="643px" height="642px" viewBox="0 0 643 642" version="1.1" xmlns="http://www.w3.org/2000/svg" xmlns:xlink="http://www.w3.org/1999/xlink">
    <!-- Generator: Sketch 47.1 (45422) - http://www.bohemiancoding.com/sketch -->
    <title>Group 40 Copy 4</title>
    <desc>Created with Sketch.</desc>
    <defs></defs>
    <g id="NEW" stroke="none" stroke-width="1" fill="none" fill-rule="evenodd">
        <g id="01-Startseite-L" transform="translate(-623.000000, -7122.000000)">
            <g id="Group-39-Copy-2" transform="translate(623.000000, 7122.000000)">
                <g id="Group-40-Copy-4">
                    <g id="Combined-Shape">
                        <path d="M266.31281,34.4303335 C116.131952,53.440788 0,181.658359 0,337 C0,505.446849 136.553151,642 305,642 C459.153859,642 586.596858,527.637208 607.114472,379.126145 C563.331866,451.56999 483.821651,500 393,500 C254.928813,500 143,388.071187 143,250 C143,158.162847 192.519083,77.8914962 266.312872,34.4303254 Z" fill-opacity="0.7" fill="#343B3E" opacity="0.9"></path>
                        <path d="M266.312871,34.4303257 C303.463245,12.5504521 346.765965,0 393,0 C531.071187,0 643,111.928813 643,250 C643,297.249537 629.892167,341.437575 607.114472,379.126145 C609.016845,365.35635 610,351.292989 610,337 C610,168.553151 473.446849,32 305,32 C291.894814,32 278.982676,32.8265371 266.312871,34.4303257 Z" fill="#BAD60A"></path>
                    </g>
                </g>
            </g>
        </g>
    </g>
</svg>